<svg id="Layer_1" data-name="Layer 1" xmlns="http://www.w3.org/2000/svg" viewBox="0 0 30.36 31.6"><defs><style>.cls-1{fill:#fff;}</style></defs><path class="cls-1" d="M27.35,20.85a7.32,7.32,0,0,1-2,5.14,7.27,7.27,0,0,1-5.14,2c-2,.11-8.08.11-10.11,0A7.33,7.33,0,0,1,5,26a7.23,7.23,0,0,1-2-5.14c-.12-2-.12-8.09,0-10.11A7.26,7.26,0,0,1,5,5.61a7.24,7.24,0,0,1,5.13-2c2-.11,8.09-.11,10.11,0a7.32,7.32,0,0,1,5.14,2,7.23,7.23,0,0,1,2,5.14C27.46,12.77,27.46,18.83,27.35,20.85ZM25.23,15.8c0-1.78.14-5.61-.49-7.22a4.14,4.14,0,0,0-2.33-2.33c-1.61-.64-5.45-.5-7.23-.5S9.57,5.61,8,6.25A4.08,4.08,0,0,0,5.63,8.58C5,10.18,5.14,14,5.14,15.8S5,21.41,5.63,23A4.11,4.11,0,0,0,8,25.35c1.61.64,5.44.5,7.22.5s5.61.14,7.23-.5A4.14,4.14,0,0,0,24.74,23C25.37,21.42,25.23,17.58,25.23,15.8Zm-3.77,0a6.28,6.28,0,1,1-6.28-6.28A6.27,6.27,0,0,1,21.46,15.8Zm-2.19,0a4.09,4.09,0,1,0-4.09,4.09A4.1,4.1,0,0,0,19.27,15.8Zm2.45-5.08a1.47,1.47,0,0,1,0-2.93,1.47,1.47,0,1,1,0,2.93Z"/></svg>