<svg id="Layer_1" data-name="Layer 1" xmlns="http://www.w3.org/2000/svg" viewBox="0 0 30.36 31.6"><defs><style>.cls-1{fill:#fff;}</style></defs><path class="cls-1" d="M26.32,10.84c0,7.59-5.78,16.33-16.33,16.33A16.24,16.24,0,0,1,1.18,24.6a12.5,12.5,0,0,0,1.38.07,11.47,11.47,0,0,0,7.13-2.46,5.75,5.75,0,0,1-5.37-4,6.5,6.5,0,0,0,1.09.09,6.31,6.31,0,0,0,1.51-.19,5.75,5.75,0,0,1-4.6-5.63v-.08a5.64,5.64,0,0,0,2.59.73A5.74,5.74,0,0,1,3.13,5.48a16.33,16.33,0,0,0,11.84,6,6.34,6.34,0,0,1-.15-1.31,5.74,5.74,0,0,1,9.93-3.93A11.58,11.58,0,0,0,28.4,4.86,5.75,5.75,0,0,1,25.87,8a11.82,11.82,0,0,0,3.31-.89,12.31,12.31,0,0,1-2.88,3C26.32,10.35,26.32,10.59,26.32,10.84Z"/></svg>