<svg id="Layer_1" data-name="Layer 1" xmlns="http://www.w3.org/2000/svg" viewBox="0 0 30.36 31.6"><defs><style>.cls-1{fill:#fff;}</style></defs><path class="cls-1" d="M28.74,15.8A13.56,13.56,0,1,1,15.18,2.24,13.56,13.56,0,0,1,28.74,15.8ZM27,15.8a11.81,11.81,0,1,0-20.48,8,5.23,5.23,0,0,1,5.17-4.49c1.13,0,1.66.62,3.5.62s2.38-.62,3.5-.62a5.23,5.23,0,0,1,5.17,4.49A11.77,11.77,0,0,0,27,15.8Zm-4.81,8.75a3.5,3.5,0,0,0-3.5-3.5,16,16,0,0,1-3.5.62,16,16,0,0,1-3.5-.62,3.5,3.5,0,0,0-3.5,3.5v.74a11.72,11.72,0,0,0,14,0ZM20,13.18a4.81,4.81,0,1,1-4.81-4.82A4.81,4.81,0,0,1,20,13.18Zm-1.75,0a3.06,3.06,0,1,0-3.06,3.06A3.06,3.06,0,0,0,18.24,13.18Z"/></svg>